<?xml version="1.0" encoding="UTF-8"?>
<svg xmlns="http://www.w3.org/2000/svg" width="102.35" height="126.93" viewBox="0 0 102.35 126.93">
  <title>ads-logo</title>
  <rect x="4.19" y="82.77" width="44.16" height="44.16" rx="7.46" fill="#fff"></rect>
  <circle cx="76.22" cy="104.85" r="22.08" fill="#f87b0f"></circle>
  <path d="M49.69,0H34.36a1.4,1.4,0,0,0-1.42,1.38,1.44,1.44,0,0,0,.32.91l4.29,5.32a1.41,1.41,0,0,1,0,1.76l-4.29,5.32a1.4,1.4,0,0,0,.15,2,1.39,1.39,0,0,0,1,.34H49.69a1.41,1.41,0,0,0,1.41-1.41V1.41A1.41,1.41,0,0,0,49.73,0Z" transform="translate(-0.06 0.04)" fill="#f87b0f"></path>
  <path d="M100.48,67.7,55.83,23.08a6.53,6.53,0,0,0-9.23,0l0,0L2,67.7A6.54,6.54,0,0,0,6.56,78.86h89.3a6.53,6.53,0,0,0,4.62-11.16Z" transform="translate(-0.06 0.04)" fill="#fff"></path>
</svg>
