<?xml version="1.0" encoding="UTF-8"?>
<svg xmlns="http://www.w3.org/2000/svg" width="367.32" height="126.89" viewBox="0 0 367.32 126.89">
  <title>logo</title>
  <path d="M130.55,92.16v-5l5.77-1.67-1.18,1.81V44l.77,1.12-5.36-1.54v-5L144.88,38V70l-1.6-1.46h8.9l-2.36,1.11,6.26-9.53.7,1.05-4.87-1V55.29l17-.55v4.93L163,61l2.64-1.46L157.12,72.2l.14-2.51L166.45,87,165,85.76l5.29,1.46v4.94H159l-8.83-17.74,1.39.63h-8.28l1.6-.63V87.29l-1-1.88,5.42,1.74v5Z" transform="translate(-0.03 -0.04)" fill="#5616af"></path>
  <path d="M186.27,86.46l-.69-.84,5.35,1.53v5H171.87v-5l5.36-1.53-.7.84V61.07l.63.62-5.29-1.46v-5l14.4-.48Zm-5.14-37.15A5.83,5.83,0,0,1,177,47.85a5.43,5.43,0,0,1-1.57-4.18,5.46,5.46,0,0,1,1.64-4.34,6.06,6.06,0,0,1,4.14-1.43,5.84,5.84,0,0,1,4,1.43,5.41,5.41,0,0,1,1.6,4.27,5.4,5.4,0,0,1-1.63,4.28A6,6,0,0,1,181.13,49.31Z" transform="translate(-0.03 -0.04)" fill="#5616af"></path>
  <path d="M208,93a12.33,12.33,0,0,1-7.13-2.12,14,14,0,0,1-4.87-6.3,25.81,25.81,0,0,1-1.78-10.16q0-10.29,5.22-15.27t14.68-5c1,0,2,0,3.06.14a27.9,27.9,0,0,1,3.2.48l-1.81,1.12V44.44l.7,1-5.71-1.87V38.6L228.29,38v48.7l-1.18-1.39,5.84,1.8v4.94l-12.24.56-1.25-6,1,.34a23.88,23.88,0,0,1-6.09,4.49A14.13,14.13,0,0,1,208,93Zm3.75-7.17a8.5,8.5,0,0,0,3.83-1,18.82,18.82,0,0,0,4.17-2.95l-1.18,2.92v-25L219.73,62a22.49,22.49,0,0,0-5.91-.9q-4.94,0-7.2,3.3t-2.26,9.08a21.36,21.36,0,0,0,.9,6.54,9.86,9.86,0,0,0,2.54,4.28A5.65,5.65,0,0,0,211.73,85.83Z" transform="translate(-0.03 -0.04)" fill="#5616af"></path>
  <path d="M266.69,80.2l.07,12h-30.4v-5.7L256.6,59.67l1.26,1.88H241l2.65-2.08-1,6.74h-5.91L236.64,55h29.29v5.71L245.54,88.27l-.34-2.65h16.2l-2.5,2.65,1.88-8.07Z" transform="translate(-0.03 -0.04)" fill="#5616af"></path>
  <path d="M285.48,86.46l-.7-.84,5.36,1.53v5H271.07v-5l5.36-1.53-.69.84V61.07l.62.62-5.29-1.46v-5l14.41-.48Zm-5.15-37.15a5.83,5.83,0,0,1-4.14-1.46,5.43,5.43,0,0,1-1.57-4.18,5.46,5.46,0,0,1,1.64-4.34,6.08,6.08,0,0,1,4.14-1.43,5.84,5.84,0,0,1,4,1.43A5.41,5.41,0,0,1,286,43.6a5.36,5.36,0,0,1-1.63,4.28A6,6,0,0,1,280.33,49.31Z" transform="translate(-0.03 -0.04)" fill="#5616af"></path>
  <path d="M310.31,93a18.08,18.08,0,0,1-8.9-2.12,14.44,14.44,0,0,1-6-6.33,22.57,22.57,0,0,1-2.12-10.27,23.58,23.58,0,0,1,2.26-10.74A16.43,16.43,0,0,1,302,56.61a18.64,18.64,0,0,1,9.67-2.43,16.3,16.3,0,0,1,8.84,2.16,12.75,12.75,0,0,1,5,5.87,21.2,21.2,0,0,1,1.6,8.39c0,.79,0,1.57-.11,2.36s-.17,1.63-.31,2.51H301.2V69.69h17.11l-1.25.91a17.17,17.17,0,0,0-.52-4.91,6.69,6.69,0,0,0-2-3.3,5.48,5.48,0,0,0-3.72-1.18,6.19,6.19,0,0,0-4.39,1.56,8.89,8.89,0,0,0-2.4,4.21,22.45,22.45,0,0,0-.73,5.91,22.1,22.1,0,0,0,.91,6.61,9.27,9.27,0,0,0,2.95,4.59,8.26,8.26,0,0,0,5.4,1.67,17,17,0,0,0,5.11-.87,29,29,0,0,0,5.74-2.61l3.27,5.22a31.3,31.3,0,0,1-8.25,4.14A26.38,26.38,0,0,1,310.31,93Z" transform="translate(-0.03 -0.04)" fill="#5616af"></path>
  <path d="M350,54.18q8.21,0,12.8,4.87t4.59,13.84a24,24,0,0,1-2.22,10.75,16.13,16.13,0,0,1-6.4,6.92,19.57,19.57,0,0,1-10,2.44q-8.2,0-12.69-4.87t-4.49-13.85a24.26,24.26,0,0,1,2.19-10.74,16,16,0,0,1,6.3-6.93A19.17,19.17,0,0,1,350,54.18Zm-.48,7a6.52,6.52,0,0,0-5.92,3.09c-1.3,2.07-1.94,5.25-1.94,9.57s.62,7.43,1.87,9.35A6.35,6.35,0,0,0,349.2,86a7,7,0,0,0,4.52-1.39,8.55,8.55,0,0,0,2.64-4.24,23.35,23.35,0,0,0,.91-7q0-6.33-1.95-9.29A6.53,6.53,0,0,0,349.48,61.14Z" transform="translate(-0.03 -0.04)" fill="#5616af"></path>
  <rect x="4.25" y="82.73" width="44.16" height="44.16" rx="7.46" fill="#6621ba"></rect>
  <circle cx="76.32" cy="104.85" r="22.08" transform="translate(-6.4 4.9) rotate(-3.56)" fill="#f87b0f"></circle>
  <path d="M49.72,0H34.39a1.4,1.4,0,0,0-1.1,2.29l4.29,5.32a1.41,1.41,0,0,1,0,1.76l-4.29,5.32A1.4,1.4,0,0,0,34.39,17H49.72a1.41,1.41,0,0,0,1.41-1.41V1.45A1.41,1.41,0,0,0,49.72,0Z" transform="translate(-0.03 -0.04)" fill="#f87b0f"></path>
  <path d="M100.51,67.74,55.86,23.12a6.53,6.53,0,0,0-9.25,0L2,67.74A6.54,6.54,0,0,0,6.59,78.9h89.3A6.53,6.53,0,0,0,100.51,67.74Z" transform="translate(-0.03 -0.04)" fill="#6621ba"></path>
</svg>
