<?xml version="1.0" encoding="UTF-8"?>
<svg xmlns="http://www.w3.org/2000/svg" width="236.85" height="212.28" viewBox="0 0 236.85 212.28">
  <title>logo</title>
  <path d="M2,212.35v-5l5.77-1.67-1.18,1.81v-43.3l.77,1.12L2,163.77v-5l14.33-.58v32l-1.6-1.46h8.9l-2.36,1.11,6.26-9.53.7,1.05-4.87-1v-4.88l17-.55v4.93l-5.91,1.33,2.64-1.46-8.52,12.66.14-2.51,9.19,17.31L36.43,206l5.29,1.46v4.94H30.43L21.6,194.61l1.39.63H14.71l1.6-.63v12.87l-1-1.88,5.42,1.74v5Z" transform="translate(-1.98 -0.92)"></path>
  <path d="M57.7,206.65l-.69-.84,5.35,1.53v5H43.3v-5l5.36-1.53-.7.84V181.26l.63.62-5.29-1.46v-5l14.4-.48ZM52.56,169.5A5.86,5.86,0,0,1,48.43,168a6.46,6.46,0,0,1,.07-8.52,6,6,0,0,1,4.14-1.43,5.86,5.86,0,0,1,4,1.43,6.47,6.47,0,0,1,0,8.55A6,6,0,0,1,52.56,169.5Z" transform="translate(-1.98 -0.92)"></path>
  <path d="M79.43,213.19a12.38,12.38,0,0,1-7.13-2.12,14,14,0,0,1-4.87-6.3,25.76,25.76,0,0,1-1.78-10.16q0-10.29,5.22-15.27t14.68-5a22.83,22.83,0,0,1,3.06.14,28.72,28.72,0,0,1,3.2.48L90,176.08V164.63l.7,1L85,163.76v-5l14.73-.6v48.7l-1.18-1.39,5.84,1.8v4.94l-12.24.56-1.25-6,1,.34a23.77,23.77,0,0,1-6.09,4.49A14.1,14.1,0,0,1,79.43,213.19ZM83.18,206A8.53,8.53,0,0,0,87,205a18.74,18.74,0,0,0,4.17-3L90,205V180l1.16,2.2a22.74,22.74,0,0,0-5.91-.9q-4.94,0-7.2,3.3t-2.26,9.08a21.31,21.31,0,0,0,.9,6.54,9.9,9.9,0,0,0,2.54,4.28A5.62,5.62,0,0,0,83.16,206Z" transform="translate(-1.98 -0.92)"></path>
  <path d="M138.12,200.39l.07,12h-30.4v-5.7L128,179.86l1.26,1.88H112.43l2.65-2.08-1,6.74h-5.91l-.1-11.21h29.29v5.71L117,208.46l-.34-2.65h16.2l-2.5,2.65,1.88-8.07Z" transform="translate(-1.98 -0.92)"></path>
  <path d="M156.91,206.65l-.7-.84,5.36,1.53v5H142.5v-5l5.36-1.53-.69.84V181.26l.62.62-5.29-1.46v-5l14.41-.48Zm-5.15-37.15a5.83,5.83,0,0,1-4.14-1.46,6.46,6.46,0,0,1,.07-8.52,6.11,6.11,0,0,1,4.14-1.43,5.86,5.86,0,0,1,4,1.43,6.47,6.47,0,0,1,0,8.55,6,6,0,0,1-4,1.43Z" transform="translate(-1.98 -0.92)"></path>
  <path d="M181.74,213.19a18,18,0,0,1-8.9-2.12,14.45,14.45,0,0,1-6-6.33,22.61,22.61,0,0,1-2.12-10.27A23.56,23.56,0,0,1,167,183.73a16.46,16.46,0,0,1,6.45-6.93,18.7,18.7,0,0,1,9.67-2.43,16.37,16.37,0,0,1,8.84,2.16,12.72,12.72,0,0,1,5,5.87,21.16,21.16,0,0,1,1.6,8.39,17,17,0,0,1-.11,2.36c-.11.79-.17,1.63-.31,2.51H172.63v-5.78h17.11l-1.25.91a17.28,17.28,0,0,0-.52-4.91,6.69,6.69,0,0,0-2-3.3,5.44,5.44,0,0,0-3.72-1.18,6.2,6.2,0,0,0-4.39,1.56,8.94,8.94,0,0,0-2.4,4.21,22.68,22.68,0,0,0-.73,5.91,22,22,0,0,0,.91,6.61,9.28,9.28,0,0,0,3,4.59A8.27,8.27,0,0,0,184,206a17.07,17.07,0,0,0,5.11-.87,28.84,28.84,0,0,0,5.74-2.61l3.27,5.22a31.15,31.15,0,0,1-8.25,4.14A26.39,26.39,0,0,1,181.74,213.19Z" transform="translate(-1.98 -0.92)"></path>
  <path d="M221.43,174.37q8.2,0,12.8,4.87t4.59,13.84a24,24,0,0,1-2.22,10.75,16.14,16.14,0,0,1-6.4,6.92,19.63,19.63,0,0,1-10,2.44q-8.2,0-12.69-4.87T203,194.47a24.25,24.25,0,0,1,2.19-10.74,16,16,0,0,1,6.3-6.93A19.21,19.21,0,0,1,221.43,174.37Zm-.48,7a6.51,6.51,0,0,0-5.92,3.09c-1.3,2.07-1.94,5.25-1.94,9.57s.62,7.43,1.87,9.35a6.36,6.36,0,0,0,5.67,2.81,7.05,7.05,0,0,0,4.52-1.39,8.6,8.6,0,0,0,2.64-4.24,23.3,23.3,0,0,0,.91-7q0-6.33-1.95-9.29a6.53,6.53,0,0,0-5.84-2.94Z" transform="translate(-1.98 -0.92)"></path>
  <rect x="66.3" y="82.77" width="44.16" height="44.16" rx="7.46" fill="#6621ba"></rect>
  <circle cx="138.34" cy="104.85" r="22.08" fill="#f87b0f"></circle>
  <path d="M113.72.92H98.39A1.4,1.4,0,0,0,97,2.3a1.38,1.38,0,0,0,.31.91l4.29,5.32a1.39,1.39,0,0,1,0,1.76l-4.29,5.32a1.4,1.4,0,0,0,.16,2,1.36,1.36,0,0,0,.94.34h15.33a1.41,1.41,0,0,0,1.41-1.41V2.37A1.4,1.4,0,0,0,113.77.92Z" transform="translate(-1.98 -0.92)" fill="#f87b0f"></path>
  <path d="M164.51,68.66,119.86,24a6.53,6.53,0,0,0-9.23,0l0,0L66,68.66a6.54,6.54,0,0,0,4.59,11.16h89.3a6.53,6.53,0,0,0,4.62-11.16Z" transform="translate(-1.98 -0.92)" fill="#6621ba"></path>
</svg>
