<svg xmlns="http://www.w3.org/2000/svg" width="73.7" height="65.73" viewBox="0 0 73.7 65.73"><title>pattern-img-02</title><g style="isolation:isolate"><path d="M34.78,21.13c-1.65-2.69-3.33-5.38-4.93-8.1a3.74,3.74,0,0,0-2.67-1.51,4.12,4.12,0,0,0-3,.84,4.69,4.69,0,0,0-.63.63,4.15,4.15,0,0,0-.9,2.08v1A4,4,0,0,0,23.48,18c1.6,2.73,3.27,5.42,4.93,8.11,1.84,3,3.7,5.93,5.69,8.81a4,4,0,0,0,5.64.67A4.08,4.08,0,0,0,40.47,30C38.49,27.06,36.62,24.11,34.78,21.13ZM72.58,1.27A4.11,4.11,0,0,0,69.72.11a4.42,4.42,0,0,0-.89.11,4.17,4.17,0,0,0-2,1.09l-.63.82a3.94,3.94,0,0,0-.55,2c-.41,3.14-.74,6.29-1.07,9.43-.37,3.49-.71,7-.91,10.46a4,4,0,0,0,4,4A4.06,4.06,0,0,0,71.79,24c.21-3.49.54-7,.91-10.45.34-3.15.66-6.3,1.07-9.44A3.79,3.79,0,0,0,72.58,1.27ZM24.05,57.73c-3.45-.61-6.86-1.35-10.27-2.12-3.08-.7-6.17-1.39-9.23-2.16a3.78,3.78,0,0,0-2.95.86A4.07,4.07,0,0,0,.11,57a4.41,4.41,0,0,0,0,.89A4.19,4.19,0,0,0,1,60l.74.72a4,4,0,0,0,1.94.79c3.07.77,6.16,1.45,9.23,2.15,3.42.78,6.83,1.52,10.27,2.12a4,4,0,0,0,4.44-3.57,4.1,4.1,0,0,0-.85-3A4.15,4.15,0,0,0,24.05,57.73Z" transform="translate(-0.09 -0.11)" fill="#f98a17" fill-rule="evenodd"/></g></svg>